<svg xmlns="http://www.w3.org/2000/svg" viewBox="0 0 4200 2970" class="bp-sheet" data-sheet="section" role="img" aria-labelledby="t-section">
<title id="t-section">SECTION A-A, scale 1:200</title>
<defs><pattern id="h-ansi31-26_0" patternUnits="userSpaceOnUse" width="26.0" height="26.0" patternTransform="rotate(45)"><line x1="0" y1="0" x2="0" y2="26.0" stroke="currentColor" stroke-width="0.8"/></pattern><pattern id="h-ansi31-6_0" patternUnits="userSpaceOnUse" width="6.0" height="6.0" patternTransform="rotate(45)"><line x1="0" y1="0" x2="0" y2="6.0" stroke="currentColor" stroke-width="0.8"/></pattern><pattern id="h-ansi37-10_0" patternUnits="userSpaceOnUse" width="10.0" height="10.0" patternTransform="rotate(45)"><line x1="0" y1="0" x2="0" y2="10.0" stroke="currentColor" stroke-width="0.8"/><line x1="0" y1="0" x2="10.0" y2="0" stroke="currentColor" stroke-width="0.8"/></pattern><pattern id="h-solid-9_0" patternUnits="userSpaceOnUse" width="10" height="10"><rect width="10" height="10" fill="currentColor" fill-opacity=".18"/></pattern></defs>
<g id="section-ground" class="bp-layer bp-ground" data-layer="ground" fill="none" stroke="currentColor" stroke-width="4.50" stroke-linecap="round" stroke-linejoin="round">
<path d="M150.0 1177.5 L560.0 1177.5 L560.0 1170.0 L3132.5 1170.0 L3155.0 1230.0 L3175.0 1300.0 L3210.0 1350.0 L3255.0 1415.0 L3375.0 1470.0 L3640.0 1490.0 L4000.0 1580.0" pathLength="1"/>
</g>
<g id="section-site" class="bp-layer bp-site" data-layer="site" fill="none" stroke="currentColor" stroke-width="2.20" stroke-linecap="round" stroke-linejoin="round">
<path class="d" d="M150.0 1295.0 L3050.0 1295.0 L3400.0 1620.0 L4000.0 1695.0" pathLength="1" stroke-dasharray="16.0 10.0"/>
<path d="M3600.0 1500.0 L4100.0 1500.0" pathLength="1"/>
<path class="d" d="M3725.0 1522.5 L4100.0 1522.5" pathLength="1" stroke-dasharray="16.0 10.0"/>
<path class="d" d="M3800.0 1545.0 L4100.0 1545.0" pathLength="1" stroke-dasharray="16.0 10.0"/>
<path d="M2430.0 1155.0 L2450.0 1155.0 L2450.0 987.5 L2430.0 987.5 Z" pathLength="1"/>
<path d="M1650.0 1170.0 L1650.0 1025.0 L2050.0 1025.0 L2050.0 1170.0" pathLength="1"/>
<path d="M3085.0 1170.0 L3085.0 985.0 L3091.0 970.0 L3109.0 970.0 L3115.0 985.0 L3115.0 1170.0" pathLength="1"/>
<path d="M3130.0 1170.0 L3130.0 1178.33 L3137.0 1178.33 L3137.0 1186.67 L3144.0 1186.67 L3144.0 1195.0 L3151.0 1195.0 L3151.0 1203.33 L3158.0 1203.33 L3158.0 1211.67 L3165.0 1211.67 L3165.0 1220.0 L3172.0 1220.0 L3172.0 1228.33 L3179.0 1228.33 L3179.0 1236.67 L3186.0 1236.67 L3186.0 1245.0 L3193.0 1245.0 L3193.0 1253.33 L3200.0 1253.33 L3200.0 1261.67 L3207.0 1261.67 L3207.0 1270.0 L3214.0 1270.0 L3244.0 1270.0 L3244.0 1278.33 L3251.0 1278.33 L3251.0 1286.67 L3258.0 1286.67 L3258.0 1295.0 L3265.0 1295.0 L3265.0 1303.33 L3272.0 1303.33 L3272.0 1311.67 L3279.0 1311.67 L3279.0 1320.0 L3286.0 1320.0 L3286.0 1328.33 L3293.0 1328.33 L3293.0 1336.67 L3300.0 1336.67 L3300.0 1345.0 L3307.0 1345.0 L3307.0 1353.33 L3314.0 1353.33 L3314.0 1361.67 L3321.0 1361.67 L3321.0 1370.0 L3328.0 1370.0 L3358.0 1370.0 L3358.0 1378.33 L3365.0 1378.33 L3365.0 1386.67 L3372.0 1386.67 L3372.0 1395.0 L3379.0 1395.0 L3379.0 1403.33 L3386.0 1403.33 L3386.0 1411.67 L3393.0 1411.67 L3393.0 1420.0 L3400.0 1420.0 L3400.0 1428.33 L3407.0 1428.33 L3407.0 1436.67 L3414.0 1436.67 L3414.0 1445.0 L3421.0 1445.0 L3421.0 1453.33 L3428.0 1453.33 L3428.0 1461.67 L3435.0 1461.67 L3435.0 1470.0 L3442.0 1470.0 L3472.0 1470.0" pathLength="1"/>
</g>
<g id="section-plant" class="bp-layer bp-plant" data-layer="plant" fill="none" stroke="currentColor" stroke-width="1.30" stroke-linecap="round" stroke-linejoin="round">
<path d="M600.0 1170.0 L600.0 1020.0 L650.0 1020.0 L650.0 1170.0" pathLength="1"/>
<path d="M690.0 1170.0 A15.0 15.0 0 0 0 660.0 1170.0" pathLength="1"/>
<path d="M745.0 1170.0 A15.0 15.0 0 0 0 715.0 1170.0" pathLength="1"/>
<path d="M800.0 1170.0 A15.0 15.0 0 0 0 770.0 1170.0" pathLength="1"/>
<path d="M855.0 1170.0 A15.0 15.0 0 0 0 825.0 1170.0" pathLength="1"/>
<path d="M910.0 1170.0 A15.0 15.0 0 0 0 880.0 1170.0" pathLength="1"/>
<path d="M965.0 1170.0 A15.0 15.0 0 0 0 935.0 1170.0" pathLength="1"/>
<path d="M1020.0 1170.0 A15.0 15.0 0 0 0 990.0 1170.0" pathLength="1"/>
<path d="M1075.0 1170.0 A15.0 15.0 0 0 0 1045.0 1170.0" pathLength="1"/>
<path d="M1130.0 1170.0 A15.0 15.0 0 0 0 1100.0 1170.0" pathLength="1"/>
<path d="M1185.0 1170.0 A15.0 15.0 0 0 0 1155.0 1170.0" pathLength="1"/>
<path d="M1240.0 1170.0 A15.0 15.0 0 0 0 1210.0 1170.0" pathLength="1"/>
<path d="M1295.0 1170.0 A15.0 15.0 0 0 0 1265.0 1170.0" pathLength="1"/>
<path d="M1350.0 1170.0 A15.0 15.0 0 0 0 1320.0 1170.0" pathLength="1"/>
<path d="M1405.0 1170.0 A15.0 15.0 0 0 0 1375.0 1170.0" pathLength="1"/>
<path d="M1460.0 1170.0 A15.0 15.0 0 0 0 1430.0 1170.0" pathLength="1"/>
<path d="M1515.0 1170.0 A15.0 15.0 0 0 0 1485.0 1170.0" pathLength="1"/>
<path d="M1570.0 1170.0 A15.0 15.0 0 0 0 1540.0 1170.0" pathLength="1"/>
<path d="M3050.0 1170.0 L3050.0 1020.0 L3100.0 1020.0 L3100.0 1170.0" pathLength="1"/>
</g>
<g id="section-hatch" class="bp-layer bp-hatch" data-layer="hatch" fill="none" stroke="currentColor" stroke-width="0.80" stroke-linecap="round" stroke-linejoin="round">
<path d="M150.0 1177.5 L560.0 1177.5 L560.0 1170.0 L3132.5 1170.0 L3155.0 1230.0 L3175.0 1300.0 L3210.0 1350.0 L3255.0 1415.0 L3375.0 1470.0 L3640.0 1490.0 L4000.0 1580.0 L4000.0 1695.0 L3400.0 1620.0 L3050.0 1295.0 L150.0 1295.0 Z" fill="url(#h-ansi31-26_0)" fill-rule="evenodd" stroke="none"/>
<path d="M580.0 1170.0 L600.0 1170.0 L600.0 1110.0 L580.0 1110.0 Z" fill="url(#h-ansi37-10_0)" fill-rule="evenodd" stroke="none"/>
<path d="M1650.0 1157.5 L2300.0 1157.5 L2300.0 1147.5 L1650.0 1147.5 Z" fill="url(#h-solid-9_0)" fill-rule="evenodd" stroke="none"/>
<path d="M1585.0 987.5 L2450.0 987.5 L2450.0 977.5 L1585.0 977.5 Z" fill="url(#h-solid-9_0)" fill-rule="evenodd" stroke="none"/>
<path d="M1650.0 1147.5 L1662.5 1147.5 L1662.5 1147.5 L1650.0 1147.5 Z" fill="url(#h-ansi31-6_0)" fill-rule="evenodd" stroke="none"/>
<path d="M1650.0 995.0 L1662.5 995.0 L1662.5 987.5 L1650.0 987.5 Z" fill="url(#h-ansi31-6_0)" fill-rule="evenodd" stroke="none"/>
<path d="M1650.0 845.0 L1662.5 845.0 L1662.5 815.0 L1650.0 815.0 Z" fill="url(#h-ansi31-6_0)" fill-rule="evenodd" stroke="none"/>
<path d="M2287.5 995.0 L2300.0 995.0 L2300.0 987.5 L2287.5 987.5 Z" fill="url(#h-ansi31-6_0)" fill-rule="evenodd" stroke="none"/>
<path d="M2287.5 845.0 L2300.0 845.0 L2300.0 815.0 L2287.5 815.0 Z" fill="url(#h-ansi31-6_0)" fill-rule="evenodd" stroke="none"/>
<path d="M1867.0 1147.5 L1873.0 1147.5 L1873.0 987.5 L1867.0 987.5 Z" fill="url(#h-ansi31-6_0)" fill-rule="evenodd" stroke="none"/>
<path d="M1987.0 1147.5 L1993.0 1147.5 L1993.0 987.5 L1987.0 987.5 Z" fill="url(#h-ansi31-6_0)" fill-rule="evenodd" stroke="none"/>
<path d="M2067.0 1037.5 L2073.0 1037.5 L2073.0 987.5 L2067.0 987.5 Z" fill="url(#h-ansi31-6_0)" fill-rule="evenodd" stroke="none"/>
<path d="M1600.0 833.2 L1975.0 696.71 L2350.0 833.2 L2350.0 820.7 L1975.0 684.21 L1600.0 820.7 Z" fill="url(#h-ansi31-6_0)" fill-rule="evenodd" stroke="none"/>
<path d="M3100.0 1170.0 L3120.0 1170.0 L3120.0 1110.0 L3100.0 1110.0 Z" fill="url(#h-ansi37-10_0)" fill-rule="evenodd" stroke="none"/>
</g>
<g id="section-wall" class="bp-layer bp-wall" data-layer="wall" fill="none" stroke="currentColor" stroke-width="5.50" stroke-linecap="round" stroke-linejoin="round">
<path d="M580.0 1170.0 L600.0 1170.0 L600.0 1110.0 L580.0 1110.0 Z" pathLength="1"/>
<path d="M619.0 1170.0 L628.0 1170.0 L628.0 1020.0 L619.0 1020.0 Z" pathLength="1"/>
<path d="M1650.0 1157.5 L2300.0 1157.5 L2300.0 1147.5 L1650.0 1147.5 Z" pathLength="1"/>
<path d="M1585.0 987.5 L2450.0 987.5 L2450.0 977.5 L1585.0 977.5 Z" pathLength="1"/>
<path d="M1650.0 1147.5 L1662.5 1147.5 L1662.5 1147.5 L1650.0 1147.5 Z" pathLength="1"/>
<path d="M1650.0 995.0 L1662.5 995.0 L1662.5 987.5 L1650.0 987.5 Z" pathLength="1"/>
<path d="M1650.0 845.0 L1662.5 845.0 L1662.5 815.0 L1650.0 815.0 Z" pathLength="1"/>
<path d="M2287.5 995.0 L2300.0 995.0 L2300.0 987.5 L2287.5 987.5 Z" pathLength="1"/>
<path d="M2287.5 845.0 L2300.0 845.0 L2300.0 815.0 L2287.5 815.0 Z" pathLength="1"/>
<path d="M1867.0 1147.5 L1873.0 1147.5 L1873.0 987.5 L1867.0 987.5 Z" pathLength="1"/>
<path d="M1987.0 1147.5 L1993.0 1147.5 L1993.0 987.5 L1987.0 987.5 Z" pathLength="1"/>
<path d="M2067.0 1037.5 L2073.0 1037.5 L2073.0 987.5 L2067.0 987.5 Z" pathLength="1"/>
<path d="M1600.0 833.2 L1975.0 696.71 L2350.0 833.2 L2350.0 820.7 L1975.0 684.21 L1600.0 820.7 Z" pathLength="1"/>
<path d="M1600.0 833.2 L1600.0 820.7" pathLength="1"/>
<path d="M3100.0 1170.0 L3120.0 1170.0 L3120.0 1110.0 L3100.0 1110.0 Z" pathLength="1"/>
</g>
<g id="section-open" class="bp-layer bp-open" data-layer="open" fill="none" stroke="currentColor" stroke-width="2.80" stroke-linecap="round" stroke-linejoin="round">
<path d="M1605.0 1170.0 L1605.0 1162.5 L1620.0 1162.5" pathLength="1"/>
<path d="M1620.0 1162.5 L1620.0 1155.0 L1635.0 1155.0" pathLength="1"/>
<path d="M1635.0 1155.0 L1635.0 1147.5 L1650.0 1147.5" pathLength="1"/>
<path d="M1656.25 1147.5 L1656.25 995.0" pathLength="1"/>
<path d="M1656.25 977.5 L1656.25 845.0" pathLength="1"/>
<path d="M2293.75 1147.5 L2293.75 995.0" pathLength="1"/>
<path d="M2293.75 977.5 L2293.75 845.0" pathLength="1"/>
<path d="M1662.5 827.5 L2287.5 827.5" pathLength="1"/>
<path d="M1585.0 977.5 L1590.0 977.5 L1590.0 927.5 L1585.0 927.5 Z" pathLength="1"/>
<path d="M2445.0 977.5 L2450.0 977.5 L2450.0 927.5 L2445.0 927.5 Z" pathLength="1"/>
</g>
<g id="section-furn" class="bp-layer bp-furn" data-layer="furn" fill="none" stroke="currentColor" stroke-width="1.20" stroke-linecap="round" stroke-linejoin="round">
<path d="M2145.0 1147.5 L2255.0 1147.5 L2255.0 1102.5 L2145.0 1102.5 Z" pathLength="1"/>
<path d="M1705.0 941.5 L1745.0 941.5 L1745.0 939.5 L1705.0 939.5 Z" pathLength="1"/>
<path d="M1725.0 977.5 L1725.0 941.5" pathLength="1"/>
</g>
<g id="section-dim" class="bp-layer bp-dim" data-layer="dim" fill="none" stroke="currentColor" stroke-width="1.30" stroke-linecap="round" stroke-linejoin="round">
<g class="bp-dim"><path d="M600.0 1305.0 L600.0 1357.0 M1650.0 1305.0 L1650.0 1357.0 M594.0 1345.0 L1656.0 1345.0 M595.5 1349.5 L604.5 1340.5 M1645.5 1349.5 L1654.5 1340.5" pathLength="1"/><text x="1125.0" y="1339.0" font-size="18.0" text-anchor="middle" dominant-baseline="auto" fill="currentColor" stroke="none">21000</text></g>
<g class="bp-dim"><path d="M1650.0 1305.0 L1650.0 1357.0 M2300.0 1305.0 L2300.0 1357.0 M1644.0 1345.0 L2306.0 1345.0 M1645.5 1349.5 L1654.5 1340.5 M2295.5 1349.5 L2304.5 1340.5" pathLength="1"/><text x="1975.0" y="1339.0" font-size="18.0" text-anchor="middle" dominant-baseline="auto" fill="currentColor" stroke="none">13000</text></g>
<g class="bp-dim"><path d="M2300.0 1305.0 L2300.0 1357.0 M2450.0 1305.0 L2450.0 1357.0 M2294.0 1345.0 L2456.0 1345.0 M2295.5 1349.5 L2304.5 1340.5 M2445.5 1349.5 L2454.5 1340.5" pathLength="1"/><text x="2375.0" y="1339.0" font-size="18.0" text-anchor="middle" dominant-baseline="auto" fill="currentColor" stroke="none">3000</text></g>
<g class="bp-dim"><path d="M2450.0 1305.0 L2450.0 1357.0 M3100.0 1305.0 L3100.0 1357.0 M2444.0 1345.0 L3106.0 1345.0 M2445.5 1349.5 L2454.5 1340.5 M3095.5 1349.5 L3104.5 1340.5" pathLength="1"/><text x="2775.0" y="1339.0" font-size="18.0" text-anchor="middle" dominant-baseline="auto" fill="currentColor" stroke="none">13000</text></g>
<g class="bp-dim"><path d="M600.0 1305.0 L600.0 1407.0 M3100.0 1305.0 L3100.0 1407.0 M594.0 1395.0 L3106.0 1395.0 M595.5 1399.5 L604.5 1390.5 M3095.5 1399.5 L3104.5 1390.5" pathLength="1"/><text x="1850.0" y="1389.0" font-size="18.0" text-anchor="middle" dominant-baseline="auto" fill="currentColor" stroke="none">50000</text></g>
<g class="bp-dim"><path d="M3110.0 1170.0 L3068.0 1170.0 M3110.0 1470.0 L3068.0 1470.0 M3080.0 1476.0 L3080.0 1164.0 M3075.5 1174.5 L3084.5 1165.5 M3075.5 1474.5 L3084.5 1465.5" pathLength="1"/><text x="3074.0" y="1320.0" font-size="18.0" text-anchor="middle" dominant-baseline="auto" fill="currentColor" stroke="none" transform="rotate(-90 3074.0 1320.0)">6000</text></g>
<g class="bp-dim"><path d="M660.0 1170.0 L692.0 1170.0 M660.0 1020.0 L692.0 1020.0 M680.0 1176.0 L680.0 1014.0 M675.5 1174.5 L684.5 1165.5 M675.5 1024.5 L684.5 1015.5" pathLength="1"/><text x="674.0" y="1095.0" font-size="18.0" text-anchor="middle" dominant-baseline="auto" fill="currentColor" stroke="none" transform="rotate(-90 674.0 1095.0)">3000</text></g>
</g>
<g id="section-text" class="bp-layer bp-text" data-layer="text" fill="currentColor" stroke="currentColor" stroke-width="1.30" stroke-linecap="round" stroke-linejoin="round">
<text class="bp-note" x="625.0" y="985.0" font-size="15.0" text-anchor="middle" dominant-baseline="central">GATE 3.0</text>
<text class="bp-note" x="3100.0" y="935.0" font-size="15.0" text-anchor="middle" dominant-baseline="central">PORTAL 4.0</text>
<path d="M725.0 1145.0 L750.0 1170.0 L775.0 1145.0 Z" pathLength="1"/>
<path d="M705.0 1170.0 L880.0 1170.0" pathLength="1"/>
<text class="bp-value" x="890.0" y="1160.0" font-size="16.0" text-anchor="start" dominant-baseline="auto">±0.00 GARDEN</text>
<path d="M1425.0 1122.5 L1450.0 1147.5 L1475.0 1122.5 Z" pathLength="1"/>
<path d="M1405.0 1147.5 L1320.0 1147.5" pathLength="1"/>
<text class="bp-value" x="1310.0" y="1137.5" font-size="16.0" text-anchor="end" dominant-baseline="auto">+0.45 GF</text>
<path d="M1425.0 952.5 L1450.0 977.5 L1475.0 952.5 Z" pathLength="1"/>
<path d="M1405.0 977.5 L1320.0 977.5" pathLength="1"/>
<text class="bp-value" x="1310.0" y="967.5" font-size="16.0" text-anchor="end" dominant-baseline="auto">+3.85 1F</text>
<path d="M1425.0 790.0 L1450.0 815.0 L1475.0 790.0 Z" pathLength="1"/>
<path d="M1405.0 815.0 L1320.0 815.0" pathLength="1"/>
<text class="bp-value" x="1310.0" y="805.0" font-size="16.0" text-anchor="end" dominant-baseline="auto">+7.10 EAVES</text>
<path d="M1950.0 659.21 L1975.0 684.21 L2000.0 659.21 Z" pathLength="1"/>
<path d="M1930.0 684.21 L2105.0 684.21" pathLength="1"/>
<text class="bp-value" x="2115.0" y="674.21" font-size="16.0" text-anchor="start" dominant-baseline="auto">+9.47 RIDGE</text>
<path d="M3425.0 1445.0 L3450.0 1470.0 L3475.0 1445.0 Z" pathLength="1"/>
<path d="M3405.0 1470.0 L3580.0 1470.0" pathLength="1"/>
<text class="bp-value" x="3590.0" y="1460.0" font-size="16.0" text-anchor="start" dominant-baseline="auto">−6.00 BEACH</text>
<path d="M3775.0 1475.0 L3800.0 1500.0 L3825.0 1475.0 Z" pathLength="1"/>
<path d="M3755.0 1500.0 L3930.0 1500.0" pathLength="1"/>
<text class="bp-value" x="3940.0" y="1490.0" font-size="16.0" text-anchor="start" dominant-baseline="auto">−6.60 SEA (APPROX.)</text>
<text class="bp-room-name" x="1100.0" y="1235.0" font-size="22.0" text-anchor="middle" dominant-baseline="central">FRONT GARDEN</text>
<text class="bp-room-name" x="1975.0" y="1235.0" font-size="22.0" text-anchor="middle" dominant-baseline="central">HOUSE</text>
<text class="bp-room-name" x="2775.0" y="1235.0" font-size="22.0" text-anchor="middle" dominant-baseline="central">BACKYARD</text>
<text class="bp-room-name" x="3750.0" y="1400.0" font-size="22.0" text-anchor="middle" dominant-baseline="central">COVE</text>
<text class="bp-room-name" x="350.0" y="1125.0" font-size="20.0" text-anchor="middle" dominant-baseline="central">ROAD</text>
<text class="bp-note" x="1760.0" y="1077.5" font-size="14.0" text-anchor="middle" dominant-baseline="central">ENTRANCE</text>
<text class="bp-note" x="1930.0" y="1077.5" font-size="14.0" text-anchor="middle" dominant-baseline="central">BOOT ROOM</text>
<text class="bp-note" x="2190.0" y="1057.5" font-size="14.0" text-anchor="middle" dominant-baseline="central">KITCHEN</text>
<text class="bp-note" x="1975.0" y="887.5" font-size="14.0" text-anchor="middle" dominant-baseline="central">WORK ROOM</text>
<text class="bp-note" x="2375.0" y="1077.5" font-size="14.0" text-anchor="middle" dominant-baseline="central">TERRACE</text>
<text class="bp-title" x="150.0" y="2510.0" font-size="42.0" text-anchor="start" dominant-baseline="hanging">LA CASA</text>
<text class="bp-note" x="150.0" y="2590.0" font-size="20.0" text-anchor="start" dominant-baseline="hanging">Private residence above a cove</text>
<text class="bp-note" x="150.0" y="2635.0" font-size="20.0" text-anchor="start" dominant-baseline="hanging">Indonesia</text>
<path d="M160.0 2790.0 L410.0 2790.0 L410.0 2774.0 L160.0 2774.0 Z" pathLength="1"/>
<path d="M410.0 2790.0 L660.0 2790.0 L660.0 2774.0 L410.0 2774.0 Z" pathLength="1"/>
<path d="M660.0 2790.0 L910.0 2790.0 L910.0 2774.0 L660.0 2774.0 Z" pathLength="1"/>
<path d="M910.0 2790.0 L1160.0 2790.0 L1160.0 2774.0 L910.0 2774.0 Z" pathLength="1"/>
<text x="160.0" y="2806.0" font-size="16.0" text-anchor="middle" dominant-baseline="hanging">0</text>
<text x="410.0" y="2806.0" font-size="16.0" text-anchor="middle" dominant-baseline="hanging">5</text>
<text x="660.0" y="2806.0" font-size="16.0" text-anchor="middle" dominant-baseline="hanging">10</text>
<text x="910.0" y="2806.0" font-size="16.0" text-anchor="middle" dominant-baseline="hanging">15</text>
<text x="1160.0" y="2806.0" font-size="16.0" text-anchor="middle" dominant-baseline="hanging">20</text>
<text x="1190.0" y="2782.0" font-size="16.0" text-anchor="start" dominant-baseline="central">m</text>
<text class="bp-note" x="1250.0" y="2510.0" font-size="18.0" text-anchor="start" dominant-baseline="hanging">Cut front to back through the entrance,</text>
<text class="bp-note" x="1250.0" y="2560.0" font-size="18.0" text-anchor="start" dominant-baseline="hanging">boot room, pantry, kitchen and work room.</text>
<text class="bp-note" x="1250.0" y="2610.0" font-size="18.0" text-anchor="start" dominant-baseline="hanging">Roof pitch 20°, terracotta tiles, eaves 1.0 m.</text>
<text class="bp-note" x="1250.0" y="2660.0" font-size="18.0" text-anchor="start" dominant-baseline="hanging">Floor to floor 3.40 m.</text>
<text class="bp-note" x="1250.0" y="2710.0" font-size="18.0" text-anchor="start" dominant-baseline="hanging">Bluff 6.00 m: stone stairs, 3 flights of 12.</text>
<text class="bp-note" x="1250.0" y="2760.0" font-size="18.0" text-anchor="start" dominant-baseline="hanging">Sea level approximate, to survey.</text>
<text class="bp-note" x="3050.0" y="2510.0" font-size="15.0" text-anchor="start" dominant-baseline="hanging">SHEET</text>
<text class="bp-value" x="3200.0" y="2510.0" font-size="20.0" text-anchor="start" dominant-baseline="hanging">SECTION A-A</text>
<text class="bp-note" x="3050.0" y="2585.0" font-size="15.0" text-anchor="start" dominant-baseline="hanging">NO.</text>
<text class="bp-value" x="3200.0" y="2585.0" font-size="20.0" text-anchor="start" dominant-baseline="hanging">A-04</text>
<text class="bp-note" x="3050.0" y="2660.0" font-size="15.0" text-anchor="start" dominant-baseline="hanging">SCALE</text>
<text class="bp-value" x="3200.0" y="2660.0" font-size="20.0" text-anchor="start" dominant-baseline="hanging">1:200 @ A3</text>
<text class="bp-note" x="3050.0" y="2735.0" font-size="15.0" text-anchor="start" dominant-baseline="hanging">DATE</text>
<text class="bp-value" x="3200.0" y="2735.0" font-size="20.0" text-anchor="start" dominant-baseline="hanging">04.10.2026</text>
<text class="bp-note" x="3050.0" y="2810.0" font-size="15.0" text-anchor="start" dominant-baseline="hanging">DRAWN</text>
<text class="bp-value" x="3200.0" y="2810.0" font-size="20.0" text-anchor="start" dominant-baseline="hanging">G. MAULANA</text>
</g>
<g id="section-frame" class="bp-layer bp-frame" data-layer="frame" fill="none" stroke="currentColor" stroke-width="4.00" stroke-linecap="round" stroke-linejoin="round">
<path d="M100.0 2870.0 L4100.0 2870.0 L4100.0 100.0 L100.0 100.0 Z" pathLength="1"/>
<path d="M100.0 2450.0 L4100.0 2450.0" pathLength="1"/>
<path d="M1200.0 2870.0 L1200.0 2450.0" pathLength="1"/>
<path d="M3000.0 2870.0 L3000.0 2450.0" pathLength="1"/>
<path d="M410.0 2790.0 L410.0 2774.0 L160.0 2774.0 L160.0 2790.0 Z" fill="url(#h-solid-9_0)" fill-rule="evenodd" stroke="none"/>
<path d="M910.0 2790.0 L910.0 2774.0 L660.0 2774.0 L660.0 2790.0 Z" fill="url(#h-solid-9_0)" fill-rule="evenodd" stroke="none"/>
</g>
</svg>